<svg id="visual" viewBox="0 0 960 300" width="960" height="300" xmlns="http://www.w3.org/2000/svg" xmlns:xlink="http://www.w3.org/1999/xlink" version="1.1"><path d="M0 178L22.8 175.3C45.7 172.7 91.3 167.3 137 162.7C182.7 158 228.3 154 274 154.3C319.7 154.7 365.3 159.3 411.2 159.7C457 160 503 156 548.8 157.2C594.7 158.3 640.3 164.7 686 170.2C731.7 175.7 777.3 180.3 823 171.7C868.7 163 914.3 141 937.2 130L960 119L960 301L937.2 301C914.3 301 868.7 301 823 301C777.3 301 731.7 301 686 301C640.3 301 594.7 301 548.8 301C503 301 457 301 411.2 301C365.3 301 319.7 301 274 301C228.3 301 182.7 301 137 301C91.3 301 45.7 301 22.8 301L0 301Z" fill="#ff9466"></path><path d="M0 157L22.8 157.3C45.7 157.7 91.3 158.3 137 165.5C182.7 172.7 228.3 186.3 274 189.8C319.7 193.3 365.3 186.7 411.2 184.8C457 183 503 186 548.8 193.2C594.7 200.3 640.3 211.7 686 214.3C731.7 217 777.3 211 823 199.5C868.7 188 914.3 171 937.2 162.5L960 154L960 301L937.2 301C914.3 301 868.7 301 823 301C777.3 301 731.7 301 686 301C640.3 301 594.7 301 548.8 301C503 301 457 301 411.2 301C365.3 301 319.7 301 274 301C228.3 301 182.7 301 137 301C91.3 301 45.7 301 22.8 301L0 301Z" fill="#f37256"></path><path d="M0 217L22.8 221.3C45.7 225.7 91.3 234.3 137 235.5C182.7 236.7 228.3 230.3 274 226.3C319.7 222.3 365.3 220.7 411.2 219.2C457 217.7 503 216.3 548.8 213.2C594.7 210 640.3 205 686 201.7C731.7 198.3 777.3 196.7 823 203C868.7 209.3 914.3 223.7 937.2 230.8L960 238L960 301L937.2 301C914.3 301 868.7 301 823 301C777.3 301 731.7 301 686 301C640.3 301 594.7 301 548.8 301C503 301 457 301 411.2 301C365.3 301 319.7 301 274 301C228.3 301 182.7 301 137 301C91.3 301 45.7 301 22.8 301L0 301Z" fill="#e54d4c"></path><path d="M0 277L22.8 277.7C45.7 278.3 91.3 279.7 137 273.3C182.7 267 228.3 253 274 247.5C319.7 242 365.3 245 411.2 245.7C457 246.3 503 244.7 548.8 241.7C594.7 238.7 640.3 234.3 686 241.5C731.7 248.7 777.3 267.3 823 274.3C868.7 281.3 914.3 276.7 937.2 274.3L960 272L960 301L937.2 301C914.3 301 868.7 301 823 301C777.3 301 731.7 301 686 301C640.3 301 594.7 301 548.8 301C503 301 457 301 411.2 301C365.3 301 319.7 301 274 301C228.3 301 182.7 301 137 301C91.3 301 45.7 301 22.8 301L0 301Z" fill="#d41746"></path></svg>