<svg id="visual" viewBox="0 0 960 300" width="960" height="300" xmlns="http://www.w3.org/2000/svg" xmlns:xlink="http://www.w3.org/1999/xlink" version="1.1"><path d="M0 268L17.8 267.2C35.7 266.3 71.3 264.7 106.8 256.8C142.3 249 177.7 235 213.2 226.7C248.7 218.3 284.3 215.7 320 217.3C355.7 219 391.3 225 426.8 229.5C462.3 234 497.7 237 533.2 242.8C568.7 248.7 604.3 257.3 640 261C675.7 264.7 711.3 263.3 746.8 260.2C782.3 257 817.7 252 853.2 249.2C888.7 246.3 924.3 245.7 942.2 245.3L960 245L960 301L942.2 301C924.3 301 888.7 301 853.2 301C817.7 301 782.3 301 746.8 301C711.3 301 675.7 301 640 301C604.3 301 568.7 301 533.2 301C497.7 301 462.3 301 426.8 301C391.3 301 355.7 301 320 301C284.3 301 248.7 301 213.2 301C177.7 301 142.3 301 106.8 301C71.3 301 35.7 301 17.8 301L0 301Z" fill="#070313" stroke-linecap="round" stroke-linejoin="miter"></path></svg>